<svg xmlns="http://www.w3.org/2000/svg" version="1.1" x="0" y="0" viewBox="0 0 470.15 470.15" xml:space="preserve" width="512" height="512"><path d="M316.08 1.86v36.2s-70.36 13.53-80.06 87.4c0 0-21.16-67.62 80.06-123.6z" data-original="#64798A" fill="#64798a"/><path d="M307.11 87.88c-6.3 0-12.47.54-18.5 1.68 62.41 10.99 110.35 76.76 110.35 156.2 0 80.72-49.48 204.28-113.23 222.18a102.89 102.89 0 0021.38 2.21c71.14 0 128.86-137.16 128.86-224.39 0-87.15-57.73-157.88-128.86-157.88z" data-original="#D15241" data-old_color="#D15241" fill="#f1ee2e"/><path d="M398.96 245.76c0 80.72-49.48 204.28-113.23 222.18a109.62 109.62 0 01-36.4-14.48 27.24 27.24 0 00-28.5 0c-1.4.87-2.82 1.68-4.22 2.48a108.44 108.44 0 01-53.57 14.21c-5.3 0-10.53-.73-15.62-2.2C83.66 450.03 34.19 326.47 34.19 245.75c0-79.44 47.93-145.21 110.28-156.27 6.1-1.07 12.27-1.61 18.57-1.61 19.1 0 37.27 5.1 53.57 14.21 1.4.8 2.81 1.61 4.22 2.48a26.95 26.95 0 0028.5 0 111.35 111.35 0 0139.28-15.01c62.42 10.99 110.35 76.76 110.35 156.2z" data-original="#E56353" data-old_color="#E56353" fill="#f6ff06"/><path d="M124.8 211.19c-7.63 37.36 1.46 70.77-13.82 67.64s-29.36-37.55-21.73-74.91c7.64-37.36 34.1-63.5 49.38-60.38s-6.19 30.28-13.82 67.65zM304.96 367.75c14.28-23.97 17.24-48.52 25.85-43.4 8.6 5.12 8.45 31.35-5.83 55.32s-37.27 36.61-45.87 31.49c-8.61-5.12 11.57-19.43 25.85-43.4z" data-original="#E1E6E9" class="active-path" data-old_color="#E1E6E9" fill="#fff"/><path d="M241 79.94A79.94 79.94 0 00161.06 0L241 79.94z" data-original="#44C4A1" fill="#44c4a1"/><path d="M241 79.94L161.06 0A79.94 79.94 0 00241 79.94z" data-original="#3EA69B" fill="#3ea69b"/><path d="M201.9 22.5v18.16l-16.08 1.49a2.19 2.19 0 01-2.39-1.98 2.15 2.15 0 011.98-2.38l12.12-1.12V22.5a2.19 2.19 0 114.38 0zM218.38 38.98v18.15l-16.1 1.5a2.19 2.19 0 01-2.37-1.98 2.15 2.15 0 011.97-2.39L214 53.14V38.98a2.19 2.19 0 114.38 0z" data-original="#31978C" fill="#31978c"/><path d="M274.11 57.08a41.89 41.89 0 0058.22 10.95L274.1 57.08z" data-original="#44C4A1" fill="#44c4a1"/><path d="M274.11 57.08l58.22 10.94a41.89 41.89 0 00-58.22-10.94z" data-original="#3EA69B" fill="#3ea69b"/><g><path d="M308 70.37l-5.37-7.86 6.52-5.4c.5-.4 1.22-.34 1.62.15.43.5.34 1.21-.15 1.62l-4.91 4.07 4.18 6.12a1.15 1.15 0 11-1.89 1.3zM296 68.11l-5.36-7.85 6.52-5.4c.49-.41 1.2-.34 1.61.14.43.51.34 1.22-.15 1.62l-4.9 4.07 4.18 6.13a1.15 1.15 0 11-1.9 1.29z" data-original="#31978C" fill="#31978c"/></g></svg>