<svg version="1.1" xmlns="http://www.w3.org/2000/svg" x="0" y="0" viewBox="0 0 503.89 503.89" xml:space="preserve"><path d="M253.48 120.44C180.76 126.86 127.15 73.23 133.55.52c72.72-6.41 126.33 47.22 119.93 119.92z" fill="#7fb241"/><path d="M256.27 171.1a15.9 15.9 0 01-11.95-13.68 116.53 116.53 0 0125.05-86.21 116.54 116.54 0 0178.69-43.23 15.9 15.9 0 013.47 31.6c-22.7 2.5-43.07 13.68-57.36 31.5s-20.77 40.13-18.27 62.83a15.9 15.9 0 01-19.63 17.19z" fill="#8e6d53"/><path d="M374.07 120.25c-17.34-4.63-35.28-3.67-52.88 2a224.84 224.84 0 01-138.5 0c-17.6-5.67-35.54-6.63-52.89-2C60.55 138.7 27.15 238.87 55.16 344s106.85 175.4 176.1 156.94a78.23 78.23 0 0141.38 0c69.23 18.45 148.08-51.82 176.1-156.94 28-105.14-5.43-205.31-74.67-223.76z" fill="#e12020"/><path d="M448.71 344c-28 105.11-106.88 175.35-176.16 156.95h-.16a77.36 77.36 0 00-40.96 0h-.16c-26.08 6.88-53.44 1.28-78.88-13.92 135.84-52.48 237.6-184.96 258.88-346.4C454.32 179.2 471.12 260 448.71 344z" fill="#d01515"/></svg>