<svg height="512" width="512" xmlns="http://www.w3.org/2000/svg" data-name="Layer 1"><path d="M51.26 299.28l-3.95 22.27-20.12 14.41c-7.4-5.47-16.06-12.13-16.19-16.5-.22-7.36 8.97-19.14 8.97-19.14 6.13-3.49 22.42-.62 31.29-1.04z" fill="#706a37"/><path d="M401.4 116.43l6.7-13.51c11.15 3.95 21.6 5.06 28.3 8.58 37.82 19.8 63.85 79.77 64.54 115.63 1.77 92.26-35.53 158.02-80.89 200.07-17.22 15.96-47.86 39.58-97.27 42.67-2.42.15-5.5.49-8.83.82l10.17-26.45-15.14-18.98c9.97-13.27 23.98-28.1 34.28-42.06 25.63-22.8 47.36-54.42 61.65-98.7 11.93-36.95 17.91-104.8-7.48-140.6-4.49-6.35-13.54-12.24-21.9-21.06l23.95-2.56z" fill="#fff27d"/><path d="M500.94 227.13c-.69-35.86-26.72-95.83-64.55-115.63-6.7-3.52-17.14-4.63-28.3-8.58l-6.7 13.5-1.9 3.86h-.07c22.45 25.62 37.57 62.36 39.37 87.69 6.55 92.04-27.28 159.65-70.4 204-9.76 10.03-24.14 23.03-44.58 33.09l-9.86 25.63c3.32-.33 6.41-.67 8.83-.82 49.41-3.1 80.05-26.71 97.27-42.67 45.36-42.05 82.66-107.81 80.9-200.07z" fill="#ffe33b"/><path d="M143.1 391.23l-9.76-18.16c18.84-8.86 54.85-21.82 69.33-26.78 56.09-19.21 104.56-86 118.02-142.83 3.45-14.58 7.37-27.97 21.61-69.3a20.9 20.9 0 001.01-4.61l16.16 5.25 16.04-11.96h.01c8.37 8.82 17.42 14.7 21.91 21.06 25.39 35.8 19.41 103.65 7.48 140.6-14.29 44.28-36.02 75.9-61.65 98.7-26.86 23.89-58 38.12-89.37 47.1-23.28 6.67-78.15 10.16-128.84-9.78z" fill="#fff27d"/><path d="M397.43 143.9c-4.49-6.35-13.54-12.24-21.9-21.06h-.02l-10.72 8c11.83 38.1 3.03 91.23-8.82 121.96-16.74 43.4-40.2 73.76-67.06 95.1-28.15 22.36-60.03 34.83-91.85 42.04-11.83 2.69-31.5 4.14-54.43 2.06l-17.58 28.52c50.7 19.94 105.56 16.45 128.84 9.78 31.37-8.98 62.51-23.2 89.37-47.1 25.63-22.8 47.36-54.42 61.65-98.69 11.93-36.96 17.91-104.8-7.48-140.61z" fill="#f9d438"/><path d="M47.31 321.55l3.95-22.27a19.55 19.55 0 002.8-.3c16.28-3.12 54.9-6.56 73.22-8.37 45.98-4.53 120.5-50.58 147.47-100.36 6.92-12.77 11.6-26.21 35.38-61.26a18.96 18.96 0 002.08-4.1l28.81 4.56 2.24.08.05.02a20.9 20.9 0 01-1 4.62c-14.25 41.32-18.17 54.7-21.62 69.29-13.46 56.83-61.93 123.62-118.02 142.83-14.48 4.96-50.49 17.92-69.33 26.78-4.29 2.02-13.05 3.35-20.74 5.26-20.54-4.11-51.87-15.88-78.32-37.04-1.89-1.51-4.4-3.34-7.09-5.33z" fill="#f8ee4f"/><path d="M312.21 124.9c-.54 1.46-30.54 52.58-37.46 65.35-26.98 49.78-101.49 95.83-147.47 100.36-18.33 1.81-56.94 5.25-73.23 8.37a19.4 19.4 0 01-2.79.3l-3.95 22.27s52.07 12.8 92.42 2.89c44.87-11.02 120.49-50.58 147.47-100.36 6.92-12.77 44.6-96.09 44.6-96.09z" fill="#fffac1"/><path d="M308.98 425.26l15.14 18.98-10.17 26.45c-9.16.92-20.05 1.8-23.08-1.34-5.1-5.3-6.23-20.2-6.23-20.2 2.45-7.5 19.62-17.62 24.34-23.9z" fill="#7f7841"/><path d="M375.52 122.84l-16.05 11.96-16.16-5.25c2.01-18-15.16-42.52-15.16-42.52l.03-13.14s-10.8-16.21-3.57-29.37a4.32 4.32 0 013.53-1.92h.01c7.16-.9 21.48 5.46 21.48 5.46.64.69 1.24 1.36 1.8 2.03 9.28 11.29 5.65 19.97 5.86 28.15.54 21.5 8.97 34.85 18.23 44.6z" fill="#706a37"/><path d="M328.15 87.03s17.17 24.53 15.16 42.52l-.05-.02-2.24-.08-28.8-4.55c6.05-16.35-5.99-43.86-5.99-43.86l5.94-12.15s-6.02-17.97 4.1-28.44l11.87 2.15a4.32 4.32 0 00-3.53 1.92c-7.24 13.16 3.57 29.37 3.57 29.37z" fill="#8c8448"/><path d="M143.64 397.23h-.66a6 6 0 01.24-12 150.58 150.58 0 0028.85-3.23 6 6 0 112.36 11.77 165.13 165.13 0 01-30.8 3.46z" fill="#ffe33b"/><path d="M455.6 171.71a6 6 0 01-5.42-3.42c-16.7-35.1-31.87-43.73-49.52-45.9a6 6 0 011.47-11.91c31.59 3.9 46.97 27.6 58.89 52.65a6 6 0 01-5.41 8.58z" fill="#f9d438"/><path d="M408.1 102.92l-6.7 13.5-1.92 3.86-23.96 2.56c-9.26-9.75-17.69-23.1-18.23-44.6-.2-8.18 3.42-16.86-5.87-28.15l1.17-.41c15.41 5.56 15.97 15.32 20 22.7 9.97 18.34 23.17 26.17 35.5 30.54z" fill="#8c8448"/><path d="M112.6 378.33c7.69-1.91 16.45-3.24 20.74-5.26l9.76 18.16-18.05 29.29c-8.71-3.43-27.23-9.47-29.01-15.33-2.2-7.26 3.78-21.47 3.78-21.47 2.4-2.4 7.32-4.04 12.78-5.4z" fill="#706a37"/></svg>