<svg xmlns="http://www.w3.org/2000/svg" version="1.1" x="0" y="0" viewBox="0 0 511.99 511.99" xml:space="preserve" width="512" height="512"><circle cx="451.47" cy="411.43" r="60.52" data-original="#744EAA" data-old_color="#744EAA" fill="#542e8a"/><path d="M458.33 470.37a60.52 60.52 0 013.36-118.58 60.51 60.51 0 10.13 119.27 61.2 61.2 0 01-3.5-.7z" data-original="#67449E" data-old_color="#67449E" fill="#47247e"/><path d="M172.05 169.02c1.5.35 2.98.77 4.43 1.22.6-2.53 1.36-4.98 2.24-7.35C117.94 93.79 42.34 68.36 14.9 61.72A9.62 9.62 0 003 70.32l-2.97 37.1a8.16 8.16 0 009 8.74c62.97-7.3 121.33 24.77 158.15 51.95 1.62.24 3.25.53 4.87.91z" data-original="#93603E" fill="#93603e"/><path d="M148.75 133.05C112.33 109.65 62.33 87.63 9.03 93.8a8.1 8.1 0 01-7.63-3.54L.03 107.42a8.16 8.16 0 009 8.74c62.97-7.3 121.33 24.77 158.15 51.95 1.62.24 3.25.53 4.87.91 1.5.35 2.98.77 4.43 1.22.6-2.53 1.36-4.98 2.24-7.35a321.34 321.34 0 00-29.97-29.84z" data-original="#7F573C" fill="#7f573c"/><path d="M83.07 284.14a60.34 60.34 0 0129.72-19.64c1.88 2.21-20.48-19.9-12.86-52.66a60.06 60.06 0 0144.84-44.87c-28.38-9.37-68.96-11.87-111.45 13.86a6.81 6.81 0 00-1.52 10.45 139.3 139.3 0 0031.35 25.34 6.44 6.44 0 011.03 10.41c-12.04 10.74-23.21 24.93-32.26 43.66a6.82 6.82 0 004.41 9.6c9.28 2.35 28 5.48 46.74 3.85z" data-original="#3BBC56" fill="#3bbc56"/><path d="M58.17 280.28a6.82 6.82 0 01-4.42-9.6c9.06-18.72 20.22-32.91 32.27-43.65A6.44 6.44 0 0085 216.62a139.3 139.3 0 01-31.35-25.34 6.81 6.81 0 011.52-10.45c20.77-12.58 41.09-18.4 59.75-19.98-24.07-2.06-52.38 2.3-81.59 19.98a6.81 6.81 0 00-1.52 10.45 139.3 139.3 0 0031.35 25.34 6.44 6.44 0 011.03 10.41c-12.04 10.74-23.21 24.93-32.26 43.66a6.82 6.82 0 004.41 9.59c9.26 2.36 27.9 5.47 46.61 3.87a151.53 151.53 0 01-24.77-3.87z" data-original="#30AA44" fill="#30aa44"/><path d="M248.58 125.44c3.42.8 6.7 1.88 9.83 3.2a60.25 60.25 0 0132.79-24.84c3.42-23.9-3.96-47.94-7.5-59.05a6.82 6.82 0 00-9.85-3.84c-18.15 10.15-31.66 22.14-41.66 34.8a6.44 6.44 0 01-10.46-.41 139.36 139.36 0 00-27.15-29.79 6.81 6.81 0 00-10.34 2.14c-23.51 44.6-17.2 85.46-5.8 113.33 11-26.72 41.07-42.3 70.14-35.54z" data-original="#3BBC56" fill="#3bbc56"/><path d="M202.55 52.58c-2.98-2.85-5.71-5.22-7.97-7.07a6.81 6.81 0 00-10.34 2.14c-23.52 44.6-17.2 85.46-5.8 113.33a58.54 58.54 0 0114.2-20.43c-5.86-24.58-5.9-55.15 9.9-87.97z" data-original="#30AA44" fill="#30aa44"/><circle cx="307.53" cy="160.01" r="60.52" data-original="#744EAA" data-old_color="#744EAA" fill="#542e8a"/><path d="M314.39 218.95a60.52 60.52 0 013.36-118.58 60.51 60.51 0 10.13 119.28 61.9 61.9 0 01-3.5-.7z" data-original="#67449E" data-old_color="#67449E" fill="#47247e"/><circle cx="241.01" cy="356.53" r="60.52" data-original="#744EAA" data-old_color="#744EAA" fill="#542e8a"/><path d="M247.87 415.47a60.52 60.52 0 013.37-118.58 60.51 60.51 0 10.13 119.27c-1.16-.2-2.33-.42-3.5-.7z" data-original="#67449E" data-old_color="#67449E" fill="#47247e"/><circle cx="127.34" cy="321.73" r="60.52" data-original="#744EAA" data-old_color="#744EAA" fill="#542e8a"/><path d="M134.2 380.66a60.52 60.52 0 013.37-118.58 60.51 60.51 0 10.13 119.28 61.9 61.9 0 01-3.5-.7z" data-original="#67449E" data-old_color="#67449E" fill="#47247e"/><circle cx="233.25" cy="181.43" r="60.52" data-original="#553788" data-old_color="#553788" fill="#351768"/><path d="M240.13 240.37a60.52 60.52 0 013.36-118.58 60.51 60.51 0 10.12 119.27c-1.16-.2-2.32-.42-3.48-.7z" data-original="#462E7A" class="active-path" data-old_color="#462E7A" fill="#260e5a"/><circle cx="319.48" cy="240.44" r="60.06" data-original="#9266CC" data-old_color="#9266CC" fill="#7246ac"/><path d="M326.47 298.93a60.07 60.07 0 013.26-117.68 60.06 60.06 0 10.1 118.36c-1.12-.2-2.24-.42-3.36-.68z" data-original="#7B54BA" data-old_color="#7B54BA" fill="#5b349a"/><circle cx="412.2" cy="324.06" r="60.06" data-original="#9266CC" data-old_color="#9266CC" fill="#7246ac"/><path d="M419.19 382.55a60.07 60.07 0 013.26-117.68 60.06 60.06 0 10.1 118.36c-1.12-.2-2.24-.42-3.37-.68z" data-original="#7B54BA" data-old_color="#7B54BA" fill="#5b349a"/><circle cx="354" cy="403.53" r="60.06" data-original="#9266CC" data-old_color="#9266CC" fill="#7246ac"/><path d="M360.99 462.02a60.07 60.07 0 013.26-117.67 60.06 60.06 0 10.1 118.35c-1.12-.2-2.24-.41-3.36-.68z" data-original="#7B54BA" data-old_color="#7B54BA" fill="#5b349a"/><circle cx="156.37" cy="225.47" r="60.06" data-original="#9266CC" data-old_color="#9266CC" fill="#7246ac"/><path d="M163.35 283.96a60.07 60.07 0 013.27-117.68 60.06 60.06 0 10.1 118.36c-1.12-.2-2.24-.42-3.37-.68z" data-original="#7B54BA" data-old_color="#7B54BA" fill="#5b349a"/><circle cx="228.98" cy="284.6" r="60.06" data-original="#AA8DD8" data-old_color="#AA8DD8" fill="#8a6db8"/><path d="M235.71 343.1a60.06 60.06 0 013.26-117.69 60.06 60.06 0 10.11 118.36c-1.12-.2-2.24-.42-3.37-.68z" data-original="#987FC9" data-old_color="#987FC9" fill="#785ab9"/><circle cx="322.73" cy="324.06" r="60.06" data-original="#AA8DD8" data-old_color="#AA8DD8" fill="#8a6db8"/><path d="M329.46 382.55a60.06 60.06 0 013.26-117.68 60.06 60.06 0 10.1 118.36c-1.12-.2-2.24-.42-3.36-.68z" data-original="#987FC9" data-old_color="#987FC9" fill="#785ab9"/></svg>