<svg version="1.1" xmlns="http://www.w3.org/2000/svg" x="0" y="0" viewBox="0 0 512 512" xml:space="preserve"><path d="M279 146.24c-5.8 1.9-12.03 3.56-18.75 4.95 0 0-3.71-8.95-6.06-22.8-5.2-30.8-3.62-85.88 60.62-121.03 3.84-2.1 7.9-4.13 12.2-6.08a14.38 14.38 0 0119.97 10.14c.82 3.92 1.64 8.42 2.3 13.35 4.94 36.97 1.06 97.99-70.28 121.47z" fill="#368b4c"/><path d="M254.2 128.39C249 97.59 250.56 42.5 314.8 7.36c.16.97.3 1.96.44 2.97 4.7 35.3 1.38 92.54-61.06 118.06z" fill="#3fa45a"/><g fill="#368b4c"><path d="M218.6 178.32a7.72 7.72 0 01-6.3-3.23L137.86 71.08a7.74 7.74 0 1112.58-9l74.44 104a7.74 7.74 0 01-6.28 12.24zM187.33 203.38c-51.9 88.39-128.84 55.72-160.26 37a14.38 14.38 0 01-3.16-22.17 173.08 173.08 0 0115.8-14.9c63.46-52.58 123.82-17.35 142.05-4.26a81.44 81.44 0 015.57 4.33z"/></g><path d="M181.76 199.06c-49.66 50.5-110.98 23.83-138.18 7.62a14.11 14.11 0 01-3.87-3.37c63.46-52.58 123.82-17.35 142.05-4.25z" fill="#3fa45a"/><path d="M226.2 183.43c-84.81 57.55-140.28-4.99-160.63-35.39a14.38 14.38 0 016.68-21.37 174.22 174.22 0 0118.66-6.16c70.54-18.86 109.96 22.8 126.27 47.07 6.16 9.16 9.03 15.85 9.03 15.85z" fill="#4cba68"/><path d="M217.18 167.58c-63.52 24.16-106.67-19.76-126.27-47.07 70.54-18.86 109.96 22.8 126.27 47.07z" fill="#64c37d"/><path d="M229.4 181.6c81.63-62 40.07-134.53 17.76-163.52a14.38 14.38 0 00-22.39-.5 174.3 174.3 0 00-11.8 15.72c-40.39 60.83-13.49 111.5 4.3 134.7 6.71 8.75 12.13 13.6 12.13 13.6z" fill="#4cba68"/><path d="M217.27 168c43.17-52.49 15.33-107.4-4.3-134.7-40.39 60.83-13.49 111.49 4.3 134.7z" fill="#64c37d"/><path d="M470.14 464.58a72.36 72.36 0 01-73.77 47.18c-112.17-9.13-213.48-80.74-213.48-80.74-80.74-53.59-90.76-169.92-19.08-221.22l2.45-1.75 52.33-37.47 54.78-39.2c71.69-51.3 178.76-4.34 203.24 89.41 28.9 110.65 11.29 195.22-6.47 243.8z" fill="#c70024"/><path d="M470.14 464.58a71.91 71.91 0 01-3.93 8.87 72.23 72.23 0 01-39.66 8.14c-112.17-9.13-213.49-80.75-213.49-80.75-68.07-45.18-85.88-134.98-46.8-192.79l52.33-37.47 54.78-39.2c71.69-51.3 178.76-4.34 203.24 89.41 28.9 110.65 11.29 195.22-6.47 243.8z" fill="#ff0c38"/><ellipse transform="rotate(144.41 183.35 333.99)" cx="183.36" cy="333.99" rx="9.29" ry="16.74"/><ellipse transform="rotate(144.41 217.38 248.57)" cx="217.38" cy="248.57" rx="9.29" ry="16.74"/><ellipse transform="rotate(144.41 301 303.43)" cx="301" cy="303.44" rx="9.29" ry="16.74"/><ellipse transform="rotate(144.41 420.15 176.55)" cx="420.15" cy="176.55" rx="9.29" ry="16.74"/><ellipse transform="rotate(144.41 394.94 279.98)" cx="394.94" cy="279.98" rx="9.29" ry="16.74"/><ellipse transform="rotate(144.41 447.31 367.22)" cx="447.31" cy="367.22" rx="9.29" ry="16.74"/><ellipse transform="rotate(144.41 332.58 413.76)" cx="332.58" cy="413.76" rx="9.29" ry="16.74"/><ellipse transform="rotate(144.41 413.16 456.91)" cx="413.16" cy="456.91" rx="9.29" ry="16.74"/><ellipse transform="rotate(144.41 320.54 189.77)" cx="320.54" cy="189.77" rx="9.29" ry="16.74"/><ellipse transform="rotate(144.41 226.66 414.66)" cx="226.66" cy="414.66" rx="9.29" ry="16.74"/></svg>