<svg xmlns="http://www.w3.org/2000/svg" width="100%" height="100%" viewBox="0 0 550 550" preserveAspectRatio="xMidYMid meet"><path fill="#4169e1" d="M0 0h550v550H0z"/><path d="M-13.71 53.41a130.67 130.67 0 01175.39.72" transform="matrix(1.14829 0 0 1 3.1 0)" fill="none" stroke="#fff" stroke-width="10" stroke-linecap="round"/><path d="M248.94 34.17a130.67 130.67 0 01175.4.72" transform="matrix(-1.14824 .0111 -.00966 -.99995 576.9 121.86)" fill="none" stroke="#fff" stroke-width="10" stroke-linecap="round"/><path d="M261.28 53.41a130.67 130.67 0 01175.39.72M210.66 170.34a130.67 130.67 0 01175.4.72" transform="matrix(1.14829 0 0 1 3.1 0)" fill="none" stroke="#fff" stroke-width="10" stroke-linecap="round"/><path d="M199.52-100.72a130.67 130.67 0 01175.4.72" transform="matrix(-1.14824 .0111 -.00966 -.99995 576.9 121.86)" fill="none" stroke="#fff" stroke-width="10" stroke-linecap="round"/><path d="M-53.66 288.71a130.67 130.67 0 01175.4.73M273.5 360.17a130.67 130.67 0 01175.4.72" transform="matrix(1.14829 0 0 1 3.1 0)" fill="none" stroke="#fff" stroke-width="10" stroke-linecap="round"/><path d="M479.55-242.06a130.67 130.67 0 01175.4.72M267.06-196.86a130.67 130.67 0 01175.4.73" transform="matrix(-1.14824 .0111 -.00966 -.99995 576.9 121.86)" fill="none" stroke="#fff" stroke-width="10" stroke-linecap="round"/><path d="M368.72 269.23a130.67 130.67 0 01175.4.72M133 451.12a130.67 130.67 0 01175.4.72M-96.75 476.38a130.67 130.67 0 01175.4.72" transform="matrix(1.14829 0 0 1 3.1 0)" fill="none" stroke="#fff" stroke-width="10" stroke-linecap="round"/><path d="M310.3-360.31a130.67 130.67 0 01175.39.72M-26.27 32.4a130.67 130.67 0 01175.4.72M-17.21-285.27a130.67 130.67 0 01175.4.73" transform="matrix(-1.14824 .0111 -.00966 -.99995 576.9 121.86)" fill="none" stroke="#fff" stroke-width="10" stroke-linecap="round"/><path d="M276.62 531.96a130.67 130.67 0 01175.4.72" transform="matrix(1.14829 0 0 1 3.1 0)" fill="none" stroke="#fff" stroke-width="10" stroke-linecap="round"/><path d="M386.06-38.1a130.67 130.67 0 01175.4.72M480.56 43.15a130.67 130.67 0 01175.4.72" transform="matrix(-1.14824 .0111 -.00966 -.99995 576.9 121.86)" fill="none" stroke="#fff" stroke-width="10" stroke-linecap="round"/><path d="M448.85 189.1a130.67 130.67 0 01175.4.73" transform="matrix(1.14829 0 0 1 3.1 0)" fill="none" stroke="#fff" stroke-width="10" stroke-linecap="round"/></svg>