<svg width="600" height="600" xmlns="http://www.w3.org/2000/svg"><path fill="#0f7bff" d="M-1-1h602v602H-1z"/><g><path d="M40.5-78.55L134-87" opacity=".5" fill-opacity="null" stroke-opacity="null" stroke-width="1.5" stroke="#fff" fill="#fff"/><path stroke="#fff" d="M3.5 59.45c121-89.97-56-3.05 226 0M134.5 58.45c121-59-56-2 226 0M243.5 57.45c78.17-76.7-36.18-2.6 146 0M483.5 57.45c121-59-56-2 226 0M432.5 57.45c78.7-39.09-36.42-1.32 147 0M92.5 110.45c121-83.33-56-2.82 226 0M33.5 109.45c121-59-56-2 226 0M213.5 109.45c153.12-43.51-70.87-1.47 286 0M383.5 109.45c69.07-76.7-31.96-2.6 129 0M333.5 189.45c121-41.3-56-1.4 226 0M158.5 189.45c171.86-78.9-79.54-2.67 321 0M3.5 189.45c51.4-76.7-23.79-2.6 96 0M433.5 189.45c67.46-89.97-31.22-3.05 126 0M53.5 229.45c121-59-56-2 226 0M83.5 229.45c121-65.63-56-2.22 226 0M173.5 229.45c89.95-41.3-41.63-1.4 168 0M363.5 229.45c50.86-50.15-23.54-1.7 95 0M513.5 229.45c95.84-67.84-44.35-2.3 179 0M415.5 229.45c24.63-32.45-11.4-1.1 46 0M473.5 289.45c121-65.63-56-2.22 226 0M373.5 289.45c121-96.6-56-3.27 226 0M153.5 289.45c121-103.24-56-3.5 226 0M225.5 289.45c96.9-61.2-44.85-2.07 181 0M183.5 389.45c121-129.78-56-4.4 226 0M233.5 389.45c103.33-101.03-47.82-3.42 193 0M351.5 389.45c100.65-103.24-46.58-3.5 188 0M3.5 389.45c121-138.63-56-4.7 226 0M494.5 389.45c104.4-65.63-48.32-2.22 195 0M3.5 439.45c121-89.97-56-3.05 226 0M308.5 439.45c75.5-65.63-34.94-2.22 141 0M433.5 439.45c121-83.33-56-2.82 226 0M353.5 439.45c121-89.97-56-3.05 226 0M123.5 439.45c56.75-59-26.27-2 106 0M3.5 579.45c121-129.78-56-4.4 226 0" opacity=".8" fill-opacity="null" stroke-opacity="null" stroke-width="1.5" fill="#fff"/><path stroke="#fff" d="M289.5 579.45c103.33-145.27-47.82-4.92 193 0" opacity=".8" fill-opacity="null" stroke-opacity="null" stroke-width="1.5" fill="#fff" vector-effect="non-scaling-stroke"/><path stroke="#fff" d="M179.5 579.45c101.73-103.24-47.08-3.5 190 0M523.5 579.45c80.31-89.97-37.17-3.05 150 0M93.5 579.45c78.7-78.9-36.42-2.67 147 0M397.5 579.45c39.08-74.48-18.09-2.52 73 0M53.5 489.45c82.45-59-38.16-2 154 0M93.5 489.45c121-83.33-56-2.82 226 0M223.5 489.45c89.95-61.2-41.63-2.07 168 0M303.5 489.45c81.92-47.94-37.91-1.62 153 0M492.5 489.45c105.47-43.51-48.81-1.47 197 0M563.5 489.45c55.68-74.48-25.77-2.52 104 0M385.5 489.45c36.94-76.7-17.1-2.6 69 0" opacity=".8" fill-opacity="null" stroke-opacity="null" stroke-width="1.5" fill="#fff"/></g></svg>