<svg xmlns="http://www.w3.org/2000/svg" height="512" width="512" class="hovered-paths"><path d="M260.74 496.92h-4.8c-37.76.09-72.66-.87-106.6-2.94-31.12-1.9-59.52-12.64-82.14-31.1-21.83-17.8-36.74-41.86-44.3-71.52-6.6-25.82-6.94-51.17-7.28-75.68-.24-17.6-.5-38.44-.54-59.64.05-21.28.3-42.12.54-59.72.34-24.5.69-49.86 7.27-75.68C30.46 90.98 45.37 66.9 67.2 49.1c22.63-18.45 51.03-29.2 82.15-31.1 33.94-2.05 68.85-3.02 106.7-2.93 37.78-.08 72.66.88 106.6 2.94 31.12 1.9 59.52 12.64 82.14 31.1 21.84 17.8 36.74 41.86 44.3 71.52 6.6 25.82 6.95 51.17 7.28 75.68.24 17.6.5 38.44.54 59.64v.08c-.04 21.2-.3 42.05-.54 59.64-.33 24.5-.68 49.86-7.27 75.68-7.57 29.66-22.47 53.73-44.3 71.53-22.63 18.45-51.03 29.2-82.15 31.1-32.5 1.97-65.89 2.93-101.9 2.93zm-4.8-37.65c37.16.09 71.28-.85 104.42-2.86 23.52-1.43 43.92-9.07 60.63-22.7 15.45-12.6 26.1-29.97 31.62-51.66 5.49-21.5 5.8-44.57 6.11-66.89.24-17.47.49-38.17.54-59.16-.05-21-.3-41.69-.54-59.16-.3-22.32-.62-45.4-6.1-66.9-5.54-21.68-16.18-39.06-31.63-51.66-16.7-13.62-37.1-21.26-60.63-22.69a1644.74 1644.74 0 00-104.33-2.86c-37.14-.1-71.26.84-104.4 2.86-23.53 1.43-43.93 9.07-60.64 22.7-15.45 12.59-26.09 29.97-31.62 51.65-5.49 21.5-5.8 44.58-6.1 66.9a5310 5310 0 00-.55 59.2c.05 20.92.3 41.63.54 59.12.3 22.32.62 45.4 6.1 66.9C64.9 403.73 75.55 421.11 91 433.7c16.7 13.63 37.1 21.26 60.64 22.7 33.14 2.01 67.26 2.95 104.31 2.86zm-.9-85.63c-64.85 0-117.63-52.77-117.63-117.64s52.78-117.64 117.64-117.64S372.69 191.13 372.69 256 319.9 373.64 255.05 373.64zm0-197.63c-44.1 0-79.99 35.88-79.99 79.99s35.9 80 80 80 80-35.9 80-80-35.9-80-80-80zm130.82-75.3a28.23 28.23 0 100 56.47 28.23 28.23 0 000-56.46zm0 0" data-original="#000000" class="hovered-path active-path" fill="#000"/></svg>